<svg width="24" height="24" viewBox="0 0 24 24" fill="none" xmlns="http://www.w3.org/2000/svg">
<path d="M6.00076 12C5.53842 12.0001 5.09038 12.1603 4.73286 12.4535C4.37534 12.7467 4.13042 13.1546 4.03976 13.608L3.03981 18.6078C2.98178 18.8979 2.98886 19.1973 3.06053 19.4844C3.13221 19.7715 3.26669 20.0391 3.45429 20.268C3.64189 20.4968 3.87793 20.6812 4.14539 20.8078C4.41285 20.9343 4.70507 21 5.00097 21H18.9996C19.2955 21 19.5877 20.9343 19.8552 20.8078C20.1227 20.6812 20.3587 20.4968 20.5463 20.268C20.7339 20.0391 20.8684 19.7715 20.9401 19.4844C21.0117 19.1973 21.0188 18.8979 20.9608 18.6078L19.9608 13.608C19.8701 13.1546 19.6252 12.7467 19.2677 12.4535C18.9102 12.1604 18.4622 12.0001 17.9998 12" stroke="#9D9D9D" stroke-linecap="round" stroke-linejoin="round"/>
<path d="M8.5 17H15.5" stroke="#9D9D9D" stroke-linecap="round" stroke-linejoin="round"/>
<path d="M7.5 7.5C7.5 6.30653 7.97411 5.16193 8.81802 4.31802C9.66193 3.47411 10.8065 3 12 3V3C13.1935 3 14.3381 3.47411 15.182 4.31802C16.0259 5.16193 16.5 6.30653 16.5 7.5C16.5 9.48666 14.2599 11.6071 12.9396 12.6839C12.669 12.8891 12.3386 13.0001 11.999 13C11.6594 12.9999 11.3291 12.8887 11.0586 12.6834C9.73949 11.6065 7.5 9.48637 7.5 7.5Z" stroke="#9D9D9D" stroke-linecap="round" stroke-linejoin="round"/>
<path d="M11.9991 7.25001C11.9496 7.2502 11.9014 7.26502 11.8604 7.2926C11.8194 7.32019 11.7875 7.3593 11.7688 7.405C11.75 7.45069 11.7452 7.50093 11.7549 7.54936C11.7647 7.59779 11.7886 7.64225 11.8236 7.67712C11.8586 7.71199 11.9031 7.7357 11.9516 7.74527C12 7.75484 12.0503 7.74984 12.0959 7.73089C12.1415 7.71194 12.1805 7.6799 12.2079 7.6388C12.2354 7.59771 12.25 7.54942 12.25 7.50001C12.2502 7.46705 12.2438 7.43439 12.2312 7.40391C12.2187 7.37344 12.2002 7.34577 12.1768 7.32251C12.1535 7.29924 12.1257 7.28086 12.0952 7.26841C12.0647 7.25596 12.032 7.24971 11.9991 7.25001" stroke="#9D9D9D" stroke-linecap="round" stroke-linejoin="round"/>
</svg>
