<svg width="24" height="24" viewBox="0 0 24 24" fill="none" xmlns="http://www.w3.org/2000/svg">
<g clip-path="url(#clip0_1_5016)">
<path d="M9 21H5V21C3.89543 21 3 20.1046 3 19V5V5C3 3.89543 3.89543 3 5 3H17V3C18.1046 3 19 3.89543 19 5V8" stroke="#9D9D9D" stroke-linecap="round" stroke-linejoin="round"/>
<path d="M12 21L14.624 20.676V20.676C14.8086 20.6532 14.9803 20.5695 15.112 20.438L21.47 14.08V14.08C22.1742 13.3788 22.1769 12.2396 21.476 11.535L21.47 11.53V11.53C20.7688 10.8258 19.6295 10.8231 18.925 11.524V11.53L12.625 17.83V17.83C12.4968 17.9573 12.4139 18.1231 12.389 18.302L12 21Z" stroke="#9D9D9D" stroke-linecap="round" stroke-linejoin="round"/>
<path d="M8 17V17C7.17157 17 6.5 16.3284 6.5 15.5V15.5V15.5C6.5 14.6716 7.17157 14 8 14V14H8C8.82843 14 9.5 14.6716 9.5 15.5V15.5C9.5 16.3284 8.82843 17 8 17C8 17 8 17 8 17H8Z" stroke="#9D9D9D" stroke-linecap="round" stroke-linejoin="round"/>
<path d="M6.5 7H14.5" stroke="#9D9D9D" stroke-linecap="round" stroke-linejoin="round"/>
<path d="M6.5 10.5H10.5" stroke="#9D9D9D" stroke-linecap="round" stroke-linejoin="round"/>
</g>
<defs>
<clipPath id="clip0_1_5016">
<rect width="24" height="24" fill="white"/>
</clipPath>
</defs>
</svg>
