<svg width="136" height="31" viewBox="0 0 136 31" fill="none" xmlns="http://www.w3.org/2000/svg">
<path d="M13.6278 17.2425L17.2259 18.3834C16.6743 20.3893 15.7549 21.8812 14.4678 22.8591C13.189 23.8287 11.5633 24.3134 9.59084 24.3134C7.1503 24.3134 5.14437 23.4818 3.57306 21.8186C2.00175 20.1469 1.21609 17.8652 1.21609 14.9733C1.21609 11.9143 2.00593 9.54061 3.5856 7.85228C5.16526 6.1556 7.24223 5.30726 9.81651 5.30726C12.0648 5.30726 13.891 5.97173 15.2952 7.30065C16.131 8.08631 16.7579 9.21464 17.1758 10.6857L13.5024 11.5633C13.2851 10.6104 12.8296 9.85821 12.1359 9.30658C11.4505 8.75495 10.6147 8.47914 9.62845 8.47914C8.26609 8.47914 7.15865 8.96808 6.30613 9.94597C5.46197 10.9239 5.03989 12.5077 5.03989 14.6975C5.03989 17.021 5.45779 18.6759 6.2936 19.6622C7.1294 20.6484 8.21594 21.1416 9.55323 21.1416C10.5395 21.1416 11.3878 20.8281 12.0982 20.2013C12.8087 19.5744 13.3185 18.5882 13.6278 17.2425ZM31.4053 24H21.3255V27.5104H18.4671V21.1165H19.9088C20.5106 20.4478 21.0079 19.4031 21.4007 17.9822C21.7936 16.5614 22.0276 14.1292 22.1028 10.6857H32.8471V21.1165H34.2763V27.5104H31.4053V24ZM29.3618 21.1165L29.3743 13.5817H25.1117C24.9696 17.2592 24.3846 19.7708 23.3565 21.1165H29.3618ZM39.3287 14.7477L36.1318 14.171C36.4912 12.8838 37.1097 11.931 37.9873 11.3125C38.8648 10.694 40.1687 10.3848 41.8988 10.3848C43.4701 10.3848 44.6402 10.5728 45.4092 10.9489C46.1781 11.3167 46.7172 11.7889 47.0265 12.3656C47.3441 12.934 47.5029 13.9829 47.5029 15.5124L47.4653 19.6246C47.4653 20.7947 47.5196 21.6598 47.6282 22.2197C47.7453 22.7714 47.9584 23.3648 48.2676 24H44.7823C44.6904 23.766 44.5776 23.4191 44.4438 22.9594C44.3853 22.7505 44.3435 22.6126 44.3185 22.5457C43.7167 23.1308 43.0731 23.5696 42.3878 23.8621C41.7024 24.1546 40.9711 24.3009 40.1938 24.3009C38.8231 24.3009 37.7407 23.929 36.9467 23.1851C36.161 22.4412 35.7682 21.5009 35.7682 20.3643C35.7682 19.612 35.9479 18.9434 36.3073 18.3583C36.6667 17.7649 37.1682 17.3136 37.8117 17.0043C38.4637 16.6867 39.3998 16.4109 40.62 16.1769C42.2666 15.8676 43.4074 15.5793 44.0426 15.3118V14.9608C44.0426 14.2838 43.8755 13.8032 43.5412 13.519C43.2068 13.2265 42.5758 13.0802 41.6481 13.0802C41.0212 13.0802 40.5323 13.2056 40.1812 13.4563C39.8302 13.6987 39.546 14.1292 39.3287 14.7477ZM44.0426 17.6061C43.5913 17.7566 42.8767 17.9362 41.8988 18.1452C40.9209 18.3542 40.2815 18.5589 39.9806 18.7595C39.5209 19.0855 39.2911 19.4992 39.2911 20.0007C39.2911 20.4938 39.475 20.9201 39.8427 21.2795C40.2105 21.6389 40.6785 21.8186 41.2469 21.8186C41.8821 21.8186 42.4881 21.6096 43.0648 21.1917C43.491 20.8741 43.771 20.4854 43.9047 20.0258C43.9967 19.7249 44.0426 19.1523 44.0426 18.3082V17.6061ZM50.9004 10.6857H54.2854V19.0479L59.7014 10.6857H63.1616V24H59.7766V15.4873L54.2854 24H50.9004V10.6857ZM59.3378 5.28219H61.0554C60.9551 6.41888 60.5539 7.31319 59.8519 7.96512C59.1581 8.60869 58.2555 8.93047 57.1439 8.93047C56.0322 8.93047 55.1254 8.60869 54.4233 7.96512C53.7296 7.31319 53.3326 6.41888 53.2323 5.28219H54.9499C55.0084 5.87561 55.2173 6.32694 55.5767 6.63619C55.9361 6.93708 56.4585 7.08752 57.1439 7.08752C57.8292 7.08752 58.3516 6.93708 58.711 6.63619C59.0704 6.32694 59.2793 5.87561 59.3378 5.28219Z" fill="#2C2828"/>
<rect width="65.9854" height="24.0711" rx="5.6166" transform="matrix(0.9996 0.0282706 -0.0430687 0.999072 70.041 4.20898)" fill="#267DED"/>
<path d="M79.9106 9.86567L84.2717 9.98902L87.3179 19.3563L90.9137 10.1769L95.2623 10.2998L94.8859 23.6089L91.8908 23.5242L92.1385 14.7643L88.645 23.4324L85.6373 23.3473L82.7896 14.4999L82.5419 23.2598L79.5342 23.1747L79.9106 9.86567ZM98.671 10.3963L102.193 10.4958L102.055 15.3708L107.093 15.5133L107.23 10.6383L110.764 10.7383L110.388 24.0473L106.854 23.9474L107.012 18.3581L101.974 18.2156L101.816 23.8049L98.2946 23.7053L98.671 10.3963ZM121.774 20.1301L125.266 20.8184C124.779 22.0922 124.037 23.0537 123.04 23.7028C122.052 24.3437 120.827 24.6435 119.365 24.6022C117.051 24.5367 115.359 23.7322 114.291 22.1886C113.448 20.9523 113.053 19.411 113.105 17.5646C113.167 15.359 113.793 13.6501 114.981 12.4378C116.169 11.2172 117.645 10.6319 119.408 10.6817C121.388 10.7377 122.931 11.4377 124.039 12.7818C125.147 14.1175 125.637 16.1339 125.511 18.8311L116.688 18.5816C116.684 19.6266 116.945 20.4492 117.471 21.0494C117.998 21.6412 118.667 21.9486 119.477 21.9715C120.028 21.9871 120.496 21.8499 120.881 21.5597C121.265 21.2696 121.563 20.793 121.774 20.1301ZM122.075 16.5767C122.079 15.5567 121.838 14.7764 121.351 14.2359C120.865 13.687 120.263 13.4024 119.544 13.3821C118.776 13.3604 118.133 13.6223 117.616 14.1679C117.099 14.7135 116.831 15.4668 116.812 16.4278L122.075 16.5767Z" fill="white"/>
</svg>
