<svg width="24" height="24" viewBox="0 0 24 24" fill="none" xmlns="http://www.w3.org/2000/svg">
<rect width="24" height="24" rx="5" fill="#FAFAFA"/>
<path d="M18.75 12C18.75 12.2472 18.8233 12.4889 18.9607 12.6945C19.098 12.9 19.2932 13.0602 19.5216 13.1548C19.7501 13.2495 20.0014 13.2742 20.2439 13.226C20.4863 13.1778 20.7091 13.0587 20.8839 12.8839C21.0587 12.7091 21.1777 12.4863 21.226 12.2439C21.2742 12.0014 21.2495 11.7501 21.1549 11.5216C21.0602 11.2932 20.9 11.098 20.6945 10.9607C20.4889 10.8233 20.2472 10.75 20 10.75C19.6685 10.75 19.3505 10.8817 19.1161 11.1161C18.8817 11.3505 18.75 11.6685 18.75 12ZM13.25 12C13.25 11.7528 13.1767 11.5111 13.0393 11.3055C12.902 11.1 12.7068 10.9398 12.4784 10.8452C12.2499 10.7505 11.9986 10.7258 11.7561 10.774C11.5137 10.8223 11.2909 10.9413 11.1161 11.1161C10.9413 11.2909 10.8223 11.5137 10.774 11.7561C10.7258 11.9986 10.7505 12.2499 10.8452 12.4784C10.9398 12.7068 11.1 12.902 11.3055 13.0393C11.5111 13.1767 11.7528 13.25 12 13.25C12.3315 13.25 12.6495 13.1183 12.8839 12.8839C13.1183 12.6495 13.25 12.3315 13.25 12ZM5.25 12C5.25 11.7528 5.17669 11.5111 5.03934 11.3055C4.90199 11.1 4.70676 10.9398 4.47836 10.8452C4.24995 10.7505 3.99861 10.7258 3.75614 10.774C3.51366 10.8223 3.29093 10.9413 3.11612 11.1161C2.9413 11.2909 2.82225 11.5137 2.77402 11.7561C2.72579 11.9986 2.75054 12.2499 2.84515 12.4784C2.93976 12.7068 3.09998 12.902 3.30554 13.0393C3.5111 13.1767 3.75277 13.25 4 13.25C4.33152 13.25 4.64946 13.1183 4.88388 12.8839C5.1183 12.6495 5.25 12.3315 5.25 12Z" fill="#267DED"/>
</svg>
