<svg width="24" height="24" viewBox="0 0 24 24" fill="none" xmlns="http://www.w3.org/2000/svg">
<g clip-path="url(#clip0_1_5012)">
<path d="M15.5486 3.12242H15.5487C15.9509 3.2565 16.3008 3.51375 16.5486 3.85774C16.7965 4.20172 16.9298 4.61499 16.9297 5.03898V5.09367C16.9296 5.62186 17.1363 6.12908 17.5057 6.50662C17.8751 6.88417 18.3776 7.10199 18.9057 7.11341L19.0238 7.11597C19.3914 7.12391 19.7499 7.23205 20.0605 7.42871C20.3711 7.62538 20.6222 7.90311 20.7866 8.23197V8.23197C20.9762 8.61119 21.0417 9.04047 20.9737 9.45898C20.9057 9.87748 20.7078 10.264 20.4079 10.5637L20.3692 10.6023C19.9956 10.9757 19.7832 11.4806 19.7774 12.0088C19.7716 12.5369 19.973 13.0463 20.3383 13.4278L20.42 13.5131C20.6743 13.7786 20.8513 14.1085 20.9319 14.4672C21.0125 14.826 20.9937 15.1999 20.8774 15.5487V15.5487C20.7433 15.9509 20.4861 16.3007 20.1421 16.5486C19.7981 16.7965 19.3848 16.9298 18.9608 16.9297H18.9062C18.378 16.9295 17.8708 17.1363 17.4932 17.5057C17.1157 17.875 16.8978 18.3776 16.8864 18.9057L16.8839 19.0238C16.8759 19.3914 16.7678 19.7498 16.5711 20.0605C16.3745 20.3711 16.0967 20.6222 15.7679 20.7866V20.7866C15.3886 20.9762 14.9594 21.0417 14.5409 20.9737C14.1224 20.9057 13.7359 20.7078 13.4361 20.4079L13.3975 20.3692C13.0241 19.9956 12.5192 19.7832 11.9911 19.7774C11.4629 19.7716 10.9535 19.973 10.5721 20.3383L10.4868 20.42C10.2212 20.6743 9.89132 20.8513 9.5326 20.9319C9.17388 21.0125 8.79997 20.9936 8.45117 20.8774C8.04894 20.7433 7.69911 20.486 7.45125 20.142C7.20338 19.7981 7.07006 19.3848 7.07018 18.9608V18.9061C7.07032 18.378 6.86355 17.8707 6.49418 17.4932C6.12481 17.1156 5.62223 16.8978 5.09417 16.8864L4.97603 16.8838C4.60846 16.8759 4.25002 16.7678 3.93937 16.5711C3.62873 16.3744 3.37766 16.0967 3.21325 15.7678V15.7678C3.02363 15.3886 2.95816 14.9594 3.02611 14.5409C3.09407 14.1224 3.292 13.7359 3.59185 13.4362L3.63055 13.3975C4.00413 13.0241 4.21658 12.5193 4.22236 11.9911C4.22815 11.463 4.02681 10.9536 3.66149 10.5721L3.57973 10.4867C3.32545 10.2212 3.14846 9.89126 3.06786 9.53255C2.98727 9.17383 3.00611 8.79993 3.12237 8.45114V8.45114C3.25645 8.0489 3.51371 7.69907 3.8577 7.45121C4.20169 7.20334 4.61496 7.07002 5.03895 7.07014H5.09362C5.6218 7.07028 6.12902 6.86351 6.50656 6.49414C6.88411 6.12477 7.10193 5.62219 7.11335 5.09414L7.1159 4.97599C7.12385 4.60842 7.23198 4.25 7.42864 3.93936C7.62529 3.62871 7.90301 3.37765 8.23186 3.21322C8.61108 3.02361 9.04036 2.95815 9.45886 3.02613C9.87737 3.0941 10.2639 3.29206 10.5636 3.59195L10.6022 3.63059C10.9756 4.00418 11.4805 4.21664 12.0086 4.22242C12.5368 4.22819 13.0462 4.02683 13.4277 3.6615L13.5129 3.57983C13.7785 3.3255 14.1084 3.1485 14.4671 3.06789C14.8259 2.98729 15.1998 3.00614 15.5486 3.12242V3.12242Z" stroke="#9D9D9D" stroke-linecap="round" stroke-linejoin="round"/>
<path d="M12 14.5C13.3807 14.5 14.5 13.3807 14.5 12C14.5 10.6193 13.3807 9.5 12 9.5C10.6193 9.5 9.5 10.6193 9.5 12C9.5 13.3807 10.6193 14.5 12 14.5Z" stroke="#9D9D9D" stroke-linecap="round" stroke-linejoin="round"/>
</g>
<defs>
<clipPath id="clip0_1_5012">
<rect width="24" height="24" fill="white"/>
</clipPath>
</defs>
</svg>
